mtllib wolf-head.mtl
o head
usemtl fur_white
v 0 0.17999999225139618 -0.4486249890550971
v 0.12999999523162842 0.2199999913573265 -0.4486249890550971
v 0.2199999988079071 0.19999999552965164 -0.24862499725073578
v 0 0.17999999225139618 -0.4486249890550971
v 0.2199999988079071 0.19999999552965164 -0.24862499725073578
v 0 0.11999998986721039 -0.24862499725073578
v 0.12999999523162842 0.2199999913573265 -0.4486249890550971
v 0.1899999976158142 0.3799999915063381 -0.4486249890550971
v 0.30000001192092896 0.4399999901652336 -0.24862499725073578
v 0.12999999523162842 0.2199999913573265 -0.4486249890550971
v 0.30000001192092896 0.4399999901652336 -0.24862499725073578
v 0.2199999988079071 0.19999999552965164 -0.24862499725073578
v 0.1899999976158142 0.3799999915063381 -0.4486249890550971
v 0.15000000596046448 0.5599999874830246 -0.4486249890550971
v 0.23999999463558197 0.7199999988079071 -0.24862499725073578
v 0.1899999976158142 0.3799999915063381 -0.4486249890550971
v 0.23999999463558197 0.7199999988079071 -0.24862499725073578
v 0.30000001192092896 0.4399999901652336 -0.24862499725073578
v 0.15000000596046448 0.5599999874830246 -0.4486249890550971
v 0 0.6099999845027924 -0.4486249890550971
v 0 0.8199999928474426 -0.24862499725073578
v 0.15000000596046448 0.5599999874830246 -0.4486249890550971
v 0 0.8199999928474426 -0.24862499725073578
v 0.23999999463558197 0.7199999988079071 -0.24862499725073578
v 0 0.6099999845027924 -0.4486249890550971
v -0.15000000596046448 0.5599999874830246 -0.4486249890550971
v -0.23999999463558197 0.7199999988079071 -0.24862499725073578
v 0 0.6099999845027924 -0.4486249890550971
v -0.23999999463558197 0.7199999988079071 -0.24862499725073578
v 0 0.8199999928474426 -0.24862499725073578
v -0.15000000596046448 0.5599999874830246 -0.4486249890550971
v -0.1899999976158142 0.3799999915063381 -0.4486249890550971
v -0.30000001192092896 0.4399999901652336 -0.24862499725073578
v -0.15000000596046448 0.5599999874830246 -0.4486249890550971
v -0.30000001192092896 0.4399999901652336 -0.24862499725073578
v -0.23999999463558197 0.7199999988079071 -0.24862499725073578
v -0.1899999976158142 0.3799999915063381 -0.4486249890550971
v -0.12999999523162842 0.2199999913573265 -0.4486249890550971
v -0.2199999988079071 0.19999999552965164 -0.24862499725073578
v -0.1899999976158142 0.3799999915063381 -0.4486249890550971
v -0.2199999988079071 0.19999999552965164 -0.24862499725073578
v -0.30000001192092896 0.4399999901652336 -0.24862499725073578
v -0.12999999523162842 0.2199999913573265 -0.4486249890550971
v 0 0.17999999225139618 -0.4486249890550971
v 0 0.11999998986721039 -0.24862499725073578
v -0.12999999523162842 0.2199999913573265 -0.4486249890550971
v 0 0.11999998986721039 -0.24862499725073578
v -0.2199999988079071 0.19999999552965164 -0.24862499725073578
v 0 0.11999998986721039 -0.24862499725073578
v 0.2199999988079071 0.19999999552965164 -0.24862499725073578
v 0.25 0.16999998688697815 -0.0686250012740493
v 0 0.11999998986721039 -0.24862499725073578
v 0.25 0.16999998688697815 -0.0686250012740493
v 0 0.07999999821186066 -0.0686250012740493
v 0.2199999988079071 0.19999999552965164 -0.24862499725073578
v 0.30000001192092896 0.4399999901652336 -0.24862499725073578
v 0.33000001311302185 0.41999999433755875 -0.0686250012740493
v 0.2199999988079071 0.19999999552965164 -0.24862499725073578
v 0.33000001311302185 0.41999999433755875 -0.0686250012740493
v 0.25 0.16999998688697815 -0.0686250012740493
v 0.30000001192092896 0.4399999901652336 -0.24862499725073578
v 0.23999999463558197 0.7199999988079071 -0.24862499725073578
v 0.23000000417232513 0.7299999892711639 -0.0686250012740493
v 0.30000001192092896 0.4399999901652336 -0.24862499725073578
v 0.23000000417232513 0.7299999892711639 -0.0686250012740493
v 0.33000001311302185 0.41999999433755875 -0.0686250012740493
v 0.23999999463558197 0.7199999988079071 -0.24862499725073578
v 0 0.8199999928474426 -0.24862499725073578
v 0 0.8199999928474426 -0.0686250012740493
v 0.23999999463558197 0.7199999988079071 -0.24862499725073578
v 0 0.8199999928474426 -0.0686250012740493
v 0.23000000417232513 0.7299999892711639 -0.0686250012740493
v 0 0.8199999928474426 -0.24862499725073578
v -0.23999999463558197 0.7199999988079071 -0.24862499725073578
v -0.23000000417232513 0.7299999892711639 -0.0686250012740493
v 0 0.8199999928474426 -0.24862499725073578
v -0.23000000417232513 0.7299999892711639 -0.0686250012740493
v 0 0.8199999928474426 -0.0686250012740493
v -0.23999999463558197 0.7199999988079071 -0.24862499725073578
v -0.30000001192092896 0.4399999901652336 -0.24862499725073578
v -0.33000001311302185 0.41999999433755875 -0.0686250012740493
v -0.23999999463558197 0.7199999988079071 -0.24862499725073578
v -0.33000001311302185 0.41999999433755875 -0.0686250012740493
v -0.23000000417232513 0.7299999892711639 -0.0686250012740493
v -0.30000001192092896 0.4399999901652336 -0.24862499725073578
v -0.2199999988079071 0.19999999552965164 -0.24862499725073578
v -0.25 0.16999998688697815 -0.0686250012740493
v -0.30000001192092896 0.4399999901652336 -0.24862499725073578
v -0.25 0.16999998688697815 -0.0686250012740493
v -0.33000001311302185 0.41999999433755875 -0.0686250012740493
v -0.2199999988079071 0.19999999552965164 -0.24862499725073578
v 0 0.11999998986721039 -0.24862499725073578
v 0 0.07999999821186066 -0.0686250012740493
v -0.2199999988079071 0.19999999552965164 -0.24862499725073578
v 0 0.07999999821186066 -0.0686250012740493
v -0.25 0.16999998688697815 -0.0686250012740493
v 0 0.07999999821186066 -0.0686250012740493
v 0.25 0.16999998688697815 -0.0686250012740493
v 0.1899999976158142 0.25999999418854713 0.11137501332908867
v 0 0.07999999821186066 -0.0686250012740493
v 0.1899999976158142 0.25999999418854713 0.11137501332908867
v 0 0.25999999418854713 0.11137501332908867
v 0.25 0.16999998688697815 -0.0686250012740493
v 0.33000001311302185 0.41999999433755875 -0.0686250012740493
v 0.2199999988079071 0.4099999964237213 0.11137501332908867
v 0.25 0.16999998688697815 -0.0686250012740493
v 0.2199999988079071 0.4099999964237213 0.11137501332908867
v 0.1899999976158142 0.25999999418854713 0.11137501332908867
v 0.33000001311302185 0.41999999433755875 -0.0686250012740493
v 0.23000000417232513 0.7299999892711639 -0.0686250012740493
v 0.1599999964237213 0.6599999964237213 0.11137501332908867
v 0.33000001311302185 0.41999999433755875 -0.0686250012740493
v 0.1599999964237213 0.6599999964237213 0.11137501332908867
v 0.2199999988079071 0.4099999964237213 0.11137501332908867
v 0.23000000417232513 0.7299999892711639 -0.0686250012740493
v 0 0.8199999928474426 -0.0686250012740493
v 0 0.7199999988079071 0.11137501332908867
v 0.23000000417232513 0.7299999892711639 -0.0686250012740493
v 0 0.7199999988079071 0.11137501332908867
v 0.1599999964237213 0.6599999964237213 0.11137501332908867
v 0 0.8199999928474426 -0.0686250012740493
v -0.23000000417232513 0.7299999892711639 -0.0686250012740493
v -0.1599999964237213 0.6599999964237213 0.11137501332908867
v 0 0.8199999928474426 -0.0686250012740493
v -0.1599999964237213 0.6599999964237213 0.11137501332908867
v 0 0.7199999988079071 0.11137501332908867
v -0.23000000417232513 0.7299999892711639 -0.0686250012740493
v -0.33000001311302185 0.41999999433755875 -0.0686250012740493
v -0.2199999988079071 0.4099999964237213 0.11137501332908867
v -0.23000000417232513 0.7299999892711639 -0.0686250012740493
v -0.2199999988079071 0.4099999964237213 0.11137501332908867
v -0.1599999964237213 0.6599999964237213 0.11137501332908867
v -0.33000001311302185 0.41999999433755875 -0.0686250012740493
v -0.25 0.16999998688697815 -0.0686250012740493
v -0.1899999976158142 0.25999999418854713 0.11137501332908867
v -0.33000001311302185 0.41999999433755875 -0.0686250012740493
v -0.1899999976158142 0.25999999418854713 0.11137501332908867
v -0.2199999988079071 0.4099999964237213 0.11137501332908867
v -0.25 0.16999998688697815 -0.0686250012740493
v 0 0.07999999821186066 -0.0686250012740493
v 0 0.25999999418854713 0.11137501332908867
v -0.25 0.16999998688697815 -0.0686250012740493
v 0 0.25999999418854713 0.11137501332908867
v -0.1899999976158142 0.25999999418854713 0.11137501332908867
v 0 0.25999999418854713 0.11137501332908867
v 0.1899999976158142 0.25999999418854713 0.11137501332908867
v 0.11500000208616257 0.26999999210238457 0.3113750014081597
v 0 0.25999999418854713 0.11137501332908867
v 0.11500000208616257 0.26999999210238457 0.3113750014081597
v 0 0.26999999210238457 0.3113750014081597
v 0.1899999976158142 0.25999999418854713 0.11137501332908867
v 0.2199999988079071 0.4099999964237213 0.11137501332908867
v 0.12999999523162842 0.3399999924004078 0.3113750014081597
v 0.1899999976158142 0.25999999418854713 0.11137501332908867
v 0.12999999523162842 0.3399999924004078 0.3113750014081597
v 0.11500000208616257 0.26999999210238457 0.3113750014081597
v 0.2199999988079071 0.4099999964237213 0.11137501332908867
v 0.1599999964237213 0.6599999964237213 0.11137501332908867
v 0.0949999988079071 0.5299999862909317 0.3113750014081597
v 0.2199999988079071 0.4099999964237213 0.11137501332908867
v 0.0949999988079071 0.5299999862909317 0.3113750014081597
v 0.12999999523162842 0.3399999924004078 0.3113750014081597
v 0.1599999964237213 0.6599999964237213 0.11137501332908867
v 0 0.7199999988079071 0.11137501332908867
v 0 0.5699999928474426 0.3113750014081597
v 0.1599999964237213 0.6599999964237213 0.11137501332908867
v 0 0.5699999928474426 0.3113750014081597
v 0.0949999988079071 0.5299999862909317 0.3113750014081597
v 0 0.7199999988079071 0.11137501332908867
v -0.1599999964237213 0.6599999964237213 0.11137501332908867
v -0.0949999988079071 0.5299999862909317 0.3113750014081597
v 0 0.7199999988079071 0.11137501332908867
v -0.0949999988079071 0.5299999862909317 0.3113750014081597
v 0 0.5699999928474426 0.3113750014081597
v -0.1599999964237213 0.6599999964237213 0.11137501332908867
v -0.2199999988079071 0.4099999964237213 0.11137501332908867
v -0.12999999523162842 0.3399999924004078 0.3113750014081597
v -0.1599999964237213 0.6599999964237213 0.11137501332908867
v -0.12999999523162842 0.3399999924004078 0.3113750014081597
v -0.0949999988079071 0.5299999862909317 0.3113750014081597
v -0.2199999988079071 0.4099999964237213 0.11137501332908867
v -0.1899999976158142 0.25999999418854713 0.11137501332908867
v -0.11500000208616257 0.26999999210238457 0.3113750014081597
v -0.2199999988079071 0.4099999964237213 0.11137501332908867
v -0.11500000208616257 0.26999999210238457 0.3113750014081597
v -0.12999999523162842 0.3399999924004078 0.3113750014081597
v -0.1899999976158142 0.25999999418854713 0.11137501332908867
v 0 0.25999999418854713 0.11137501332908867
v 0 0.26999999210238457 0.3113750014081597
v -0.1899999976158142 0.25999999418854713 0.11137501332908867
v 0 0.26999999210238457 0.3113750014081597
v -0.11500000208616257 0.26999999210238457 0.3113750014081597
v 0 0.26999999210238457 0.3113750014081597
v 0.11500000208616257 0.26999999210238457 0.3113750014081597
v 0.08799999952316284 0.2799999937415123 0.4113750252500176
v 0 0.26999999210238457 0.3113750014081597
v 0.08799999952316284 0.2799999937415123 0.4113750252500176
v 0 0.2799999937415123 0.4113750252500176
v 0.11500000208616257 0.26999999210238457 0.3113750014081597
v 0.12999999523162842 0.3399999924004078 0.3113750014081597
v 0.10000000149011612 0.3199999928474426 0.4113750252500176
v 0.11500000208616257 0.26999999210238457 0.3113750014081597
v 0.10000000149011612 0.3199999928474426 0.4113750252500176
v 0.08799999952316284 0.2799999937415123 0.4113750252500176
v 0.12999999523162842 0.3399999924004078 0.3113750014081597
v 0.0949999988079071 0.5299999862909317 0.3113750014081597
v 0.07000000029802322 0.44999998807907104 0.4113750252500176
v 0.12999999523162842 0.3399999924004078 0.3113750014081597
v 0.07000000029802322 0.44999998807907104 0.4113750252500176
v 0.10000000149011612 0.3199999928474426 0.4113750252500176
v 0.0949999988079071 0.5299999862909317 0.3113750014081597
v 0 0.5699999928474426 0.3113750014081597
v 0 0.47999998927116394 0.4113750252500176
v 0.0949999988079071 0.5299999862909317 0.3113750014081597
v 0 0.47999998927116394 0.4113750252500176
v 0.07000000029802322 0.44999998807907104 0.4113750252500176
v 0 0.5699999928474426 0.3113750014081597
v -0.0949999988079071 0.5299999862909317 0.3113750014081597
v -0.07000000029802322 0.44999998807907104 0.4113750252500176
v 0 0.5699999928474426 0.3113750014081597
v -0.07000000029802322 0.44999998807907104 0.4113750252500176
v 0 0.47999998927116394 0.4113750252500176
v -0.0949999988079071 0.5299999862909317 0.3113750014081597
v -0.12999999523162842 0.3399999924004078 0.3113750014081597
v -0.10000000149011612 0.3199999928474426 0.4113750252500176
v -0.0949999988079071 0.5299999862909317 0.3113750014081597
v -0.10000000149011612 0.3199999928474426 0.4113750252500176
v -0.07000000029802322 0.44999998807907104 0.4113750252500176
v -0.12999999523162842 0.3399999924004078 0.3113750014081597
v -0.11500000208616257 0.26999999210238457 0.3113750014081597
v -0.08799999952316284 0.2799999937415123 0.4113750252500176
v -0.12999999523162842 0.3399999924004078 0.3113750014081597
v -0.08799999952316284 0.2799999937415123 0.4113750252500176
v -0.10000000149011612 0.3199999928474426 0.4113750252500176
v -0.11500000208616257 0.26999999210238457 0.3113750014081597
v 0 0.26999999210238457 0.3113750014081597
v 0 0.2799999937415123 0.4113750252500176
v -0.11500000208616257 0.26999999210238457 0.3113750014081597
v 0 0.2799999937415123 0.4113750252500176
v -0.08799999952316284 0.2799999937415123 0.4113750252500176
v 0.12999999523162842 0.2199999913573265 -0.4486249890550971
v 0 0.17999999225139618 -0.4486249890550971
v 0 0.38999999314546585 -0.5286250021681189
v 0.1899999976158142 0.3799999915063381 -0.4486249890550971
v 0.12999999523162842 0.2199999913573265 -0.4486249890550971
v 0 0.38999999314546585 -0.5286250021681189
v 0.15000000596046448 0.5599999874830246 -0.4486249890550971
v 0.1899999976158142 0.3799999915063381 -0.4486249890550971
v 0 0.38999999314546585 -0.5286250021681189
v 0 0.6099999845027924 -0.4486249890550971
v 0.15000000596046448 0.5599999874830246 -0.4486249890550971
v 0 0.38999999314546585 -0.5286250021681189
v -0.15000000596046448 0.5599999874830246 -0.4486249890550971
v 0 0.6099999845027924 -0.4486249890550971
v 0 0.38999999314546585 -0.5286250021681189
v -0.1899999976158142 0.3799999915063381 -0.4486249890550971
v -0.15000000596046448 0.5599999874830246 -0.4486249890550971
v 0 0.38999999314546585 -0.5286250021681189
v -0.12999999523162842 0.2199999913573265 -0.4486249890550971
v -0.1899999976158142 0.3799999915063381 -0.4486249890550971
v 0 0.38999999314546585 -0.5286250021681189
v 0 0.17999999225139618 -0.4486249890550971
v -0.12999999523162842 0.2199999913573265 -0.4486249890550971
v 0 0.38999999314546585 -0.5286250021681189
v 0 0.2799999937415123 0.4113750252500176
v 0.08799999952316284 0.2799999937415123 0.4113750252500176
v 0 0.3349999925121665 0.48137501809746025
v 0.08799999952316284 0.2799999937415123 0.4113750252500176
v 0.10000000149011612 0.3199999928474426 0.4113750252500176
v 0 0.3349999925121665 0.48137501809746025
v 0.10000000149011612 0.3199999928474426 0.4113750252500176
v 0.07000000029802322 0.44999998807907104 0.4113750252500176
v 0 0.3349999925121665 0.48137501809746025
v 0.07000000029802322 0.44999998807907104 0.4113750252500176
v 0 0.47999998927116394 0.4113750252500176
v 0 0.3349999925121665 0.48137501809746025
v 0 0.47999998927116394 0.4113750252500176
v -0.07000000029802322 0.44999998807907104 0.4113750252500176
v 0 0.3349999925121665 0.48137501809746025
v -0.07000000029802322 0.44999998807907104 0.4113750252500176
v -0.10000000149011612 0.3199999928474426 0.4113750252500176
v 0 0.3349999925121665 0.48137501809746025
v -0.10000000149011612 0.3199999928474426 0.4113750252500176
v -0.08799999952316284 0.2799999937415123 0.4113750252500176
v 0 0.3349999925121665 0.48137501809746025
v -0.08799999952316284 0.2799999937415123 0.4113750252500176
v 0 0.2799999937415123 0.4113750252500176
v 0 0.3349999925121665 0.48137501809746025
vn 0.2867328282747978 -0.9318816844425121 -0.22221793669756176
vn 0.2867328282747978 -0.9318816844425121 -0.22221793669756176
vn 0.2867328282747978 -0.9318816844425121 -0.22221793669756176
vn 0.3289202398019742 -0.9045306296531072 -0.2713592008168609
vn 0.3289202398019742 -0.9045306296531072 -0.2713592008168609
vn 0.3289202398019742 -0.9045306296531072 -0.2713592008168609
vn 0.8664485333206127 -0.32491824469871394 -0.37907133018531713
vn 0.8664485333206127 -0.32491824469871394 -0.37907133018531713
vn 0.8664485333206127 -0.32491824469871394 -0.37907133018531713
vn 0.862350260955484 -0.2874501565239116 -0.41680263308235893
vn 0.862350260955484 -0.2874501565239116 -0.41680263308235893
vn 0.862350260955484 -0.2874501565239116 -0.41680263308235893
vn 0.8323260499267273 0.18496128813488633 -0.5225157112516853
vn 0.8323260499267273 0.18496128813488633 -0.5225157112516853
vn 0.8323260499267273 0.18496128813488633 -0.5225157112516853
vn 0.8382181077968989 0.17961822768986152 -0.51490552147257
vn 0.8382181077968989 0.17961822768986152 -0.51490552147257
vn 0.8382181077968989 0.17961822768986152 -0.51490552147257
vn 0.22404126939550673 0.672123852890004 -0.7057301438821686
vn 0.22404126939550673 0.672123852890004 -0.7057301438821686
vn 0.22404126939550673 0.672123852890004 -0.7057301438821686
vn 0.2842457882020544 0.6821898797640016 -0.6736626008893248
vn 0.2842457882020544 0.6821898797640016 -0.6736626008893248
vn 0.2842457882020544 0.6821898797640016 -0.6736626008893248
vn -0.23490425112888247 0.7047128427936113 -0.6694772602585735
vn -0.23490425112888247 0.7047128427936113 -0.6694772602585735
vn -0.23490425112888247 0.7047128427936113 -0.6694772602585735
vn -0.27617984873315043 0.6628316608014188 -0.6959733332484564
vn -0.27617984873315043 0.6628316608014188 -0.6959733332484564
vn -0.27617984873315043 0.6628316608014188 -0.6959733332484564
vn -0.8363412716637746 0.18585357287748375 -0.5157438577050572
vn -0.8363412716637746 0.18585357287748375 -0.5157438577050572
vn -0.8363412716637746 0.18585357287748375 -0.5157438577050572
vn -0.8356310193988631 0.17906384308961817 -0.5192850272407183
vn -0.8356310193988631 0.17906384308961817 -0.5192850272407183
vn -0.8356310193988631 0.17906384308961817 -0.5192850272407183
vn -0.8517871112498979 -0.31942019652103487 -0.4152462584575776
vn -0.8517871112498979 -0.31942019652103487 -0.4152462584575776
vn -0.8517871112498979 -0.31942019652103487 -0.4152462584575776
vn -0.8725022786659274 -0.2908341624273956 -0.3926261118264034
vn -0.8725022786659274 -0.2908341624273956 -0.3926261118264034
vn -0.8725022786659274 -0.2908341624273956 -0.3926261118264034
vn -0.2826943364216985 -0.9187565933705202 -0.27562698397162044
vn -0.2826943364216985 -0.9187565933705202 -0.27562698397162044
vn -0.2826943364216985 -0.9187565933705202 -0.27562698397162044
vn -0.3317132979402026 -0.91221150228033 -0.24049212685054336
vn -0.3317132979402026 -0.91221150228033 -0.24049212685054336
vn -0.3317132979402026 -0.91221150228033 -0.24049212685054336
vn 0.3342047995085441 -0.9190631688461733 -0.208878059297486
vn 0.3342047995085441 -0.9190631688461733 -0.208878059297486
vn 0.3342047995085441 -0.9190631688461733 -0.208878059297486
vn 0.33154977067901015 -0.9209717110515031 -0.2046603454642905
vn 0.33154977067901015 -0.9209717110515031 -0.2046603454642905
vn 0.33154977067901015 -0.9209717110515031 -0.2046603454642905
vn 0.9314498924863338 -0.31048333723187455 -0.18973980891883377
vn 0.9314498924863338 -0.31048333723187455 -0.18973980891883377
vn 0.9314498924863338 -0.31048333723187455 -0.18973980891883377
vn 0.9321806188988412 -0.2982978147369293 -0.20507975880750948
vn 0.9321806188988412 -0.2982978147369293 -0.20507975880750948
vn 0.9321806188988412 -0.2982978147369293 -0.20507975880750948
vn 0.9769129693426832 0.2093385445202702 0.0426429842787367
vn 0.9769129693426832 0.2093385445202702 0.0426429842787367
vn 0.9769129693426832 0.2093385445202702 0.0426429842787367
vn 0.9444166306335434 0.30465054139266406 -0.12355272320730869
vn 0.9444166306335434 0.30465054139266406 -0.12355272320730869
vn 0.9444166306335434 0.30465054139266406 -0.12355272320730869
vn 0.38461538884766705 0.923076921313472 0
vn 0.38461538884766705 0.923076921313472 0
vn 0.38461538884766705 0.923076921313472 0
vn 0.36421880104342647 0.9307813638874664 -0.03147566689169419
vn 0.36421880104342647 0.9307813638874664 -0.03147566689169419
vn 0.36421880104342647 0.9307813638874664 -0.03147566689169419
vn -0.3844434082076017 0.9226641796982441 -0.029901126859866987
vn -0.3844434082076017 0.9226641796982441 -0.029901126859866987
vn -0.3844434082076017 0.9226641796982441 -0.029901126859866987
vn -0.36439934970420634 0.931242779266047 0
vn -0.36439934970420634 0.931242779266047 0
vn -0.36439934970420634 0.931242779266047 0
vn -0.9684002372919415 0.20751438978099157 -0.13834290168539246
vn -0.9684002372919415 0.20751438978099157 -0.13834290168539246
vn -0.9684002372919415 0.20751438978099157 -0.13834290168539246
vn -0.9510987404539346 0.3068060876077913 0.035794001085932906
vn -0.9510987404539346 0.3068060876077913 0.035794001085932906
vn -0.9510987404539346 0.3068060876077913 0.035794001085932906
vn -0.9282790969033254 -0.30942642523908626 -0.20628428349272418
vn -0.9282790969033254 -0.30942642523908626 -0.20628428349272418
vn -0.9282790969033254 -0.30942642523908626 -0.20628428349272418
vn -0.9352356852221889 -0.29927542999993656 -0.1891254347921929
vn -0.9352356852221889 -0.29927542999993656 -0.1891254347921929
vn -0.9352356852221889 -0.29927542999993656 -0.1891254347921929
vn -0.3345256986776889 -0.9199456415613226 -0.2044323200879222
vn -0.3345256986776889 -0.9199456415613226 -0.2044323200879222
vn -0.3345256986776889 -0.9199456415613226 -0.2044323200879222
vn -0.33126959879368123 -0.920193452503109 -0.2085772348207777
vn -0.33126959879368123 -0.920193452503109 -0.2085772348207777
vn -0.33126959879368123 -0.920193452503109 -0.2085772348207777
vn 0.29257655744679134 -0.8127127456700202 0.5038818820498329
vn 0.29257655744679134 -0.8127127456700202 0.5038818820498329
vn 0.29257655744679134 -0.8127127456700202 0.5038818820498329
vn 0 -0.7071068109888685 0.7071067513842252
vn 0 -0.7071068109888685 0.7071067513842252
vn 0 -0.7071068109888685 0.7071067513842252
vn 0.8291849614125993 -0.26533922937528376 0.4919831228017039
vn 0.8291849614125993 -0.26533922937528376 0.4919831228017039
vn 0.8291849614125993 -0.26533922937528376 0.4919831228017039
vn 0.9024852634065913 -0.18049705268131827 0.39107692760797436
vn 0.9024852634065913 -0.18049705268131827 0.39107692760797436
vn 0.9024852634065913 -0.18049705268131827 0.39107692760797436
vn 0.8547942814187681 0.27574012250530133 0.43965227315974753
vn 0.8547942814187681 0.27574012250530133 0.43965227315974753
vn 0.8547942814187681 0.27574012250530133 0.43965227315974753
vn 0.831162749141489 0.1994790729069792 0.5190150131852973
vn 0.831162749141489 0.1994790729069792 0.5190150131852973
vn 0.831162749141489 0.1994790729069792 0.5190150131852973
vn 0.3236506530309695 0.8271072376579541 0.45950394144822715
vn 0.3236506530309695 0.8271072376579541 0.45950394144822715
vn 0.3236506530309695 0.8271072376579541 0.45950394144822715
vn 0.3139694299193993 0.8372517733819687 0.44769706838981627
vn 0.3139694299193993 0.8372517733819687 0.44769706838981627
vn 0.3139694299193993 0.8372517733819687 0.44769706838981627
vn -0.32542457954059156 0.8316405954706587 0.4499697356445622
vn -0.32542457954059156 0.8316405954706587 0.4499697356445622
vn -0.32542457954059156 0.8316405954706587 0.4499697356445622
vn -0.31149932684489035 0.8306648119817296 0.4614803782508396
vn -0.31149932684489035 0.8306648119817296 0.4614803782508396
vn -0.31149932684489035 0.8306648119817296 0.4614803782508396
vn -0.8165673637620007 0.26340887028143606 0.5136472597958972
vn -0.8165673637620007 0.26340887028143606 0.5136472597958972
vn -0.8165673637620007 0.26340887028143606 0.5136472597958972
vn -0.88040370693441 0.21129690337332682 0.4245502696277472
vn -0.88040370693441 0.21129690337332682 0.4245502696277472
vn -0.88040370693441 0.21129690337332682 0.4245502696277472
vn -0.8620120163502584 -0.27584388457114767 0.425259256233725
vn -0.8620120163502584 -0.27584388457114767 0.425259256233725
vn -0.8620120163502584 -0.27584388457114767 0.425259256233725
vn -0.8451542291836676 -0.16903084583673353 0.5070925971148456
vn -0.8451542291836676 -0.16903084583673353 0.5070925971148456
vn -0.8451542291836676 -0.16903084583673353 0.5070925971148456
vn -0.24669107995724554 -0.6852530892882055 0.6852530296835603
vn -0.24669107995724554 -0.6852530892882055 0.6852530296835603
vn -0.24669107995724554 -0.6852530892882055 0.6852530296835603
vn 0 -0.8944271909999159 0.4472135954999579
vn 0 -0.8944271909999159 0.4472135954999579
vn 0 -0.8944271909999159 0.4472135954999579
vn 0 -0.9987523394724047 0.04993760505269147
vn 0 -0.9987523394724047 0.04993760505269147
vn 0 -0.9987523394724047 0.04993760505269147
vn 0 -0.9987523391008047 0.04993761248469195
vn 0 -0.9987523391008047 0.04993761248469195
vn 0 -0.9987523391008047 0.04993761248469195
vn 0.9188630719114148 -0.1837726263032121 0.34916797805517386
vn 0.9188630719114148 -0.1837726263032121 0.34916797805517386
vn 0.9188630719114148 -0.1837726263032121 0.34916797805517386
vn 0.9148959177430231 -0.1960490400811529 0.3528884151972267
vn 0.9148959177430231 -0.1960490400811529 0.3528884151972267
vn 0.9148959177430231 -0.1960490400811529 0.3528884151972267
vn 0.8808056685323522 0.2113933705805541 0.42366757859891613
vn 0.8808056685323522 0.2113933705805541 0.42366757859891613
vn 0.8808056685323522 0.2113933705805541 0.42366757859891613
vn 0.8775250089398319 0.16164932728237025 0.4514635684906426
vn 0.8775250089398319 0.16164932728237025 0.4514635684906426
vn 0.8775250089398319 0.16164932728237025 0.4514635684906426
vn 0.28734791181426145 0.7662609789620747 0.5746958236285229
vn 0.28734791181426145 0.7662609789620747 0.5746958236285229
vn 0.28734791181426145 0.7662609789620747 0.5746958236285229
vn 0.3141479133726397 0.7461012458312464 0.587063897282637
vn 0.3141479133726397 0.7461012458312464 0.587063897282637
vn 0.3141479133726397 0.7461012458312464 0.587063897282637
vn -0.2845800242306106 0.7588799652738861 0.5857605382020971
vn -0.2845800242306106 0.7588799652738861 0.5857605382020971
vn -0.2845800242306106 0.7588799652738861 0.5857605382020971
vn -0.3192188994062702 0.758144785507055 0.5686086338337741
vn -0.3192188994062702 0.758144785507055 0.5686086338337741
vn -0.3192188994062702 0.758144785507055 0.5686086338337741
vn -0.8629813998352637 0.20711555086162484 0.4608321300969093
vn -0.8629813998352637 0.20711555086162484 0.4608321300969093
vn -0.8629813998352637 0.20711555086162484 0.4608321300969093
vn -0.9010382402634686 0.1659807284695863 0.40072495225480703
vn -0.9010382402634686 0.1659807284695863 0.40072495225480703
vn -0.9010382402634686 0.1659807284695863 0.40072495225480703
vn -0.9173829401777012 -0.1834765939960046 0.3531924128949289
vn -0.9173829401777012 -0.1834765939960046 0.3531924128949289
vn -0.9173829401777012 -0.1834765939960046 0.3531924128949289
vn -0.9180327806380443 -0.1967212143435431 0.3442623672450738
vn -0.9180327806380443 -0.1967212143435431 0.3442623672450738
vn -0.9180327806380443 -0.1967212143435431 0.3442623672450738
vn 0 -0.9987523394724047 0.04993760505269147
vn 0 -0.9987523394724047 0.04993760505269147
vn 0 -0.9987523394724047 0.04993760505269147
vn 0 -0.9987523391008047 0.04993761248469195
vn 0 -0.9987523391008047 0.04993761248469195
vn 0 -0.9987523391008047 0.04993761248469195
vn 0 -0.9950371903575255 0.09950371754563643
vn 0 -0.9950371903575255 0.09950371754563643
vn 0 -0.9950371903575255 0.09950371754563643
vn 0 -0.9950371910952066 0.099503710168824
vn 0 -0.9950371910952066 0.099503710168824
vn 0 -0.9950371910952066 0.099503710168824
vn 0.9482866890521913 -0.20320419471800708 0.24384505452323366
vn 0.9482866890521913 -0.20320419471800708 0.24384505452323366
vn 0.9482866890521913 -0.20320419471800708 0.24384505452323366
vn 0.9205746012292252 -0.2761724578548054 0.27617236844783866
vn 0.9205746012292252 -0.2761724578548054 0.27617236844783866
vn 0.9205746012292252 -0.2761724578548054 0.27617236844783866
vn 0.9159924920853801 0.16873545828408787 0.3639864002416488
vn 0.9159924920853801 0.16873545828408787 0.3639864002416488
vn 0.9159924920853801 0.16873545828408787 0.3639864002416488
vn 0.9232871096048456 0.21306626867133177 0.3195992465448024
vn 0.9232871096048456 0.21306626867133177 0.3195992465448024
vn 0.9232871096048456 0.21306626867133177 0.3195992465448024
vn 0.298680155644794 0.7093652467218062 0.6384286266821942
vn 0.298680155644794 0.7093652467218062 0.6384286266821942
vn 0.298680155644794 0.7093652467218062 0.6384286266821942
vn 0.30254838895597314 0.7059462309631629 0.6403939344880227
vn 0.30254838895597314 0.7059462309631629 0.6403939344880227
vn 0.30254838895597314 0.7059462309631629 0.6403939344880227
vn -0.2979686862951248 0.7076755777968572 0.6406324520171
vn -0.2979686862951248 0.7076755777968572 0.6406324520171
vn -0.2979686862951248 0.7076755777968572 0.6406324520171
vn -0.30352622360431863 0.7082278749449585 0.6374049801621018
vn -0.30352622360431863 0.7082278749449585 0.6374049801621018
vn -0.30352622360431863 0.7082278749449585 0.6374049801621018
vn -0.9335623465497296 0.17197200806944254 0.3144629923299813
vn -0.9335623465497296 0.17197200806944254 0.3144629923299813
vn -0.9335623465497296 0.17197200806944254 0.3144629923299813
vn -0.8972508387861384 0.20705789504366967 0.3899589214233411
vn -0.8972508387861384 0.20705789504366967 0.3899589214233411
vn -0.8972508387861384 0.20705789504366967 0.3899589214233411
vn -0.9403677111758838 -0.2015072730161035 0.2740499711721258
vn -0.9403677111758838 -0.2015072730161035 0.2740499711721258
vn -0.9403677111758838 -0.2015072730161035 0.2740499711721258
vn -0.9334793827335162 -0.28004390422702335 0.2240349386072171
vn -0.9334793827335162 -0.28004390422702335 0.2240349386072171
vn -0.9334793827335162 -0.28004390422702335 0.2240349386072171
vn 0 -0.9950371903575255 0.09950371754563643
vn 0 -0.9950371903575255 0.09950371754563643
vn 0 -0.9950371903575255 0.09950371754563643
vn 0 -0.9950371910952066 0.099503710168824
vn 0 -0.9950371910952066 0.099503710168824
vn 0 -0.9950371910952066 0.099503710168824
vn 0.10888576151625935 -0.3538787249278429 -0.9289315039239806
vn 0.10888576151625935 -0.3538787249278429 -0.9289315039239806
vn 0.10888576151625935 -0.3538787249278429 -0.9289315039239806
vn 0.3777998662867843 -0.1416749498575441 -0.9149838630361469
vn 0.3777998662867843 -0.1416749498575441 -0.9149838630361469
vn 0.3777998662867843 -0.1416749498575441 -0.9149838630361469
vn 0.3904691371244639 0.08677090777119985 -0.9165176825996532
vn 0.3904691371244639 0.08677090777119985 -0.9165176825996532
vn 0.3904691371244639 0.08677090777119985 -0.9165176825996532
vn 0.11318237248884104 0.339547184521748 -0.9337544966644881
vn 0.11318237248884104 0.339547184521748 -0.9337544966644881
vn 0.11318237248884104 0.339547184521748 -0.9337544966644881
vn -0.11318237248884104 0.339547184521748 -0.9337544966644881
vn -0.11318237248884104 0.339547184521748 -0.9337544966644881
vn -0.11318237248884104 0.339547184521748 -0.9337544966644881
vn -0.3904691371244639 0.08677090777119985 -0.9165176825996532
vn -0.3904691371244639 0.08677090777119985 -0.9165176825996532
vn -0.3904691371244639 0.08677090777119985 -0.9165176825996532
vn -0.3777998662867843 -0.1416749498575441 -0.9149838630361469
vn -0.3777998662867843 -0.1416749498575441 -0.9149838630361469
vn -0.3777998662867843 -0.1416749498575441 -0.9149838630361469
vn -0.10888576151625935 -0.3538787249278429 -0.9289315039239806
vn -0.10888576151625935 -0.3538787249278429 -0.9289315039239806
vn -0.10888576151625935 -0.3538787249278429 -0.9289315039239806
vn 0 -0.786318314002822 0.617821583520485
vn 0 -0.786318314002822 0.617821583520485
vn 0 -0.786318314002822 0.617821583520485
vn 0.5489351282249683 -0.16468057423027818 0.8194818689097539
vn 0.5489351282249683 -0.16468057423027818 0.8194818689097539
vn 0.5489351282249683 -0.16468057423027818 0.8194818689097539
vn 0.5817071235941016 0.13424012149219713 0.8022446086709693
vn 0.5817071235941016 0.13424012149219713 0.8022446086709693
vn 0.5817071235941016 0.13424012149219713 0.8022446086709693
vn 0.1831687531923621 0.4273937326135763 0.8853156528473844
vn 0.1831687531923621 0.4273937326135763 0.8853156528473844
vn 0.1831687531923621 0.4273937326135763 0.8853156528473844
vn -0.1831687531923621 0.4273937326135763 0.8853156528473844
vn -0.1831687531923621 0.4273937326135763 0.8853156528473844
vn -0.1831687531923621 0.4273937326135763 0.8853156528473844
vn -0.5817071235941016 0.13424012149219713 0.8022446086709693
vn -0.5817071235941016 0.13424012149219713 0.8022446086709693
vn -0.5817071235941016 0.13424012149219713 0.8022446086709693
vn -0.5489351282249683 -0.16468057423027818 0.8194818689097539
vn -0.5489351282249683 -0.16468057423027818 0.8194818689097539
vn -0.5489351282249683 -0.16468057423027818 0.8194818689097539
vn 0 -0.786318314002822 0.617821583520485
vn 0 -0.786318314002822 0.617821583520485
vn 0 -0.786318314002822 0.617821583520485
f 1//1 2//2 3//3
f 4//4 5//5 6//6
f 7//7 8//8 9//9
f 10//10 11//11 12//12
f 13//13 14//14 15//15
f 16//16 17//17 18//18
f 19//19 20//20 21//21
f 22//22 23//23 24//24
f 25//25 26//26 27//27
f 28//28 29//29 30//30
f 31//31 32//32 33//33
f 34//34 35//35 36//36
f 37//37 38//38 39//39
f 40//40 41//41 42//42
f 43//43 44//44 45//45
f 46//46 47//47 48//48
f 49//49 50//50 51//51
f 52//52 53//53 54//54
f 55//55 56//56 57//57
f 58//58 59//59 60//60
f 61//61 62//62 63//63
f 64//64 65//65 66//66
f 67//67 68//68 69//69
f 70//70 71//71 72//72
f 73//73 74//74 75//75
f 76//76 77//77 78//78
f 79//79 80//80 81//81
f 82//82 83//83 84//84
f 85//85 86//86 87//87
f 88//88 89//89 90//90
f 91//91 92//92 93//93
f 94//94 95//95 96//96
f 97//97 98//98 99//99
f 100//100 101//101 102//102
f 103//103 104//104 105//105
f 106//106 107//107 108//108
f 109//109 110//110 111//111
f 112//112 113//113 114//114
f 115//115 116//116 117//117
f 118//118 119//119 120//120
f 121//121 122//122 123//123
f 124//124 125//125 126//126
f 127//127 128//128 129//129
f 130//130 131//131 132//132
f 133//133 134//134 135//135
f 136//136 137//137 138//138
f 139//139 140//140 141//141
f 142//142 143//143 144//144
f 145//145 146//146 147//147
f 148//148 149//149 150//150
f 151//151 152//152 153//153
f 154//154 155//155 156//156
f 157//157 158//158 159//159
f 160//160 161//161 162//162
f 163//163 164//164 165//165
f 166//166 167//167 168//168
f 169//169 170//170 171//171
f 172//172 173//173 174//174
f 175//175 176//176 177//177
f 178//178 179//179 180//180
f 181//181 182//182 183//183
f 184//184 185//185 186//186
f 187//187 188//188 189//189
f 190//190 191//191 192//192
f 193//193 194//194 195//195
f 196//196 197//197 198//198
f 199//199 200//200 201//201
f 202//202 203//203 204//204
f 205//205 206//206 207//207
f 208//208 209//209 210//210
f 211//211 212//212 213//213
f 214//214 215//215 216//216
f 217//217 218//218 219//219
f 220//220 221//221 222//222
f 223//223 224//224 225//225
f 226//226 227//227 228//228
f 229//229 230//230 231//231
f 232//232 233//233 234//234
f 235//235 236//236 237//237
f 238//238 239//239 240//240
f 241//241 242//242 243//243
f 244//244 245//245 246//246
f 247//247 248//248 249//249
f 250//250 251//251 252//252
f 253//253 254//254 255//255
f 256//256 257//257 258//258
f 259//259 260//260 261//261
f 262//262 263//263 264//264
f 265//265 266//266 267//267
f 268//268 269//269 270//270
f 271//271 272//272 273//273
f 274//274 275//275 276//276
f 277//277 278//278 279//279
f 280//280 281//281 282//282
f 283//283 284//284 285//285
f 286//286 287//287 288//288
o mouth_roof
usemtl mouth_dark
v -0.1899999976158142 0.25999999418854713 0.11137501332908867
v 0.1899999976158142 0.25999999418854713 0.11137501332908867
v 0.11500000208616257 0.26999999210238457 0.3113750014081597
v -0.1899999976158142 0.25999999418854713 0.11137501332908867
v 0.11500000208616257 0.26999999210238457 0.3113750014081597
v -0.11500000208616257 0.26999999210238457 0.3113750014081597
v -0.11500000208616257 0.26999999210238457 0.3113750014081597
v 0.11500000208616257 0.26999999210238457 0.3113750014081597
v 0.08799999952316284 0.2799999937415123 0.4113750252500176
v -0.11500000208616257 0.26999999210238457 0.3113750014081597
v 0.08799999952316284 0.2799999937415123 0.4113750252500176
v -0.08799999952316284 0.2799999937415123 0.4113750252500176
vn 0 -0.9987523394724047 0.04993760505269147
vn 0 -0.9987523394724047 0.04993760505269147
vn 0 -0.9987523394724047 0.04993760505269147
vn 0 -0.9987523391008047 0.04993761248469195
vn 0 -0.9987523391008047 0.04993761248469195
vn 0 -0.9987523391008047 0.04993761248469195
vn 0 -0.9950371903575255 0.09950371754563643
vn 0 -0.9950371903575255 0.09950371754563643
vn 0 -0.9950371903575255 0.09950371754563643
vn 0 -0.9950371910952066 0.099503710168824
vn 0 -0.9950371910952066 0.099503710168824
vn 0 -0.9950371910952066 0.099503710168824
f 289//289 290//290 291//291
f 292//292 293//293 294//294
f 295//295 296//296 297//297
f 298//298 299//299 300//300
o ruff
usemtl fur_grey
v 0.28999999165534973 0.6399999856948853 -0.1886249985918403
v 0.33000001311302185 0.4399999901652336 -0.10862500037997963
v 0.46000000834465027 0.5799999833106995 -0.2886250000819564
v 0.33000001311302185 0.4399999901652336 -0.10862500037997963
v 0.13050000369548798 0.5399999916553497 -0.2886250000819564
v 0.46000000834465027 0.5799999833106995 -0.2886250000819564
v 0.13050000369548798 0.5399999916553497 -0.2886250000819564
v 0.28999999165534973 0.6399999856948853 -0.1886249985918403
v 0.46000000834465027 0.5799999833106995 -0.2886250000819564
v 0.28999999165534973 0.6399999856948853 -0.1886249985918403
v 0.13050000369548798 0.5399999916553497 -0.2886250000819564
v 0.33000001311302185 0.4399999901652336 -0.10862500037997963
v 0.33000001311302185 0.4399999901652336 -0.10862500037997963
v 0.27000001072883606 0.2199999913573265 -0.1286249999329448
v 0.4399999976158142 0.2799999937415123 -0.24862499725073578
v 0.27000001072883606 0.2199999913573265 -0.1286249999329448
v 0.148499995470047 0.3299999926239252 -0.20862499814480545
v 0.4399999976158142 0.2799999937415123 -0.24862499725073578
v 0.148499995470047 0.3299999926239252 -0.20862499814480545
v 0.33000001311302185 0.4399999901652336 -0.10862500037997963
v 0.4399999976158142 0.2799999937415123 -0.24862499725073578
v 0.33000001311302185 0.4399999901652336 -0.10862500037997963
v 0.148499995470047 0.3299999926239252 -0.20862499814480545
v 0.27000001072883606 0.2199999913573265 -0.1286249999329448
v 0.27000001072883606 0.2199999913573265 -0.1286249999329448
v 0.10999999940395355 0.08999998867511749 -0.08862499710172417
v 0.25999999046325684 0 -0.20862499814480545
v 0.10999999940395355 0.08999998867511749 -0.08862499710172417
v 0.12150000035762787 0.1549999862909317 -0.22862499769777062
v 0.25999999046325684 0 -0.20862499814480545
v 0.12150000035762787 0.1549999862909317 -0.22862499769777062
v 0.27000001072883606 0.2199999913573265 -0.1286249999329448
v 0.25999999046325684 0 -0.20862499814480545
v 0.27000001072883606 0.2199999913573265 -0.1286249999329448
v 0.12150000035762787 0.1549999862909317 -0.22862499769777062
v 0.10999999940395355 0.08999998867511749 -0.08862499710172417
v -0.28999999165534973 0.6399999856948853 -0.1886249985918403
v -0.33000001311302185 0.4399999901652336 -0.10862500037997963
v -0.46000000834465027 0.5799999833106995 -0.2886250000819564
v -0.33000001311302185 0.4399999901652336 -0.10862500037997963
v -0.13050000369548798 0.5399999916553497 -0.2886250000819564
v -0.46000000834465027 0.5799999833106995 -0.2886250000819564
v -0.13050000369548798 0.5399999916553497 -0.2886250000819564
v -0.28999999165534973 0.6399999856948853 -0.1886249985918403
v -0.46000000834465027 0.5799999833106995 -0.2886250000819564
v -0.28999999165534973 0.6399999856948853 -0.1886249985918403
v -0.13050000369548798 0.5399999916553497 -0.2886250000819564
v -0.33000001311302185 0.4399999901652336 -0.10862500037997963
v -0.33000001311302185 0.4399999901652336 -0.10862500037997963
v -0.27000001072883606 0.2199999913573265 -0.1286249999329448
v -0.4399999976158142 0.2799999937415123 -0.24862499725073578
v -0.27000001072883606 0.2199999913573265 -0.1286249999329448
v -0.148499995470047 0.3299999926239252 -0.20862499814480545
v -0.4399999976158142 0.2799999937415123 -0.24862499725073578
v -0.148499995470047 0.3299999926239252 -0.20862499814480545
v -0.33000001311302185 0.4399999901652336 -0.10862500037997963
v -0.4399999976158142 0.2799999937415123 -0.24862499725073578
v -0.33000001311302185 0.4399999901652336 -0.10862500037997963
v -0.148499995470047 0.3299999926239252 -0.20862499814480545
v -0.27000001072883606 0.2199999913573265 -0.1286249999329448
v -0.27000001072883606 0.2199999913573265 -0.1286249999329448
v -0.10999999940395355 0.08999998867511749 -0.08862499710172417
v -0.25999999046325684 0 -0.20862499814480545
v -0.10999999940395355 0.08999998867511749 -0.08862499710172417
v -0.12150000035762787 0.1549999862909317 -0.22862499769777062
v -0.25999999046325684 0 -0.20862499814480545
v -0.12150000035762787 0.1549999862909317 -0.22862499769777062
v -0.27000001072883606 0.2199999913573265 -0.1286249999329448
v -0.25999999046325684 0 -0.20862499814480545
v -0.27000001072883606 0.2199999913573265 -0.1286249999329448
v -0.12150000035762787 0.1549999862909317 -0.22862499769777062
v -0.10999999940395355 0.08999998867511749 -0.08862499710172417
vn 0.5654853574909585 0.40131226128952463 0.7205378403678818
vn 0.5654853574909585 0.40131226128952463 0.7205378403678818
vn 0.5654853574909585 0.40131226128952463 0.7205378403678818
vn 0.0994188507933065 -0.818962948440226 -0.5651686307546007
vn 0.0994188507933065 -0.818962948440226 -0.5651686307546007
vn 0.0994188507933065 -0.818962948440226 -0.5651686307546007
vn -0.0940807163726596 0.7749901414010077 -0.6249312758520358
vn -0.0940807163726596 0.7749901414010077 -0.6249312758520358
vn -0.0940807163726596 0.7749901414010077 -0.6249312758520358
vn -0.6039270819009376 0.18894283662396408 0.7743207889725732
vn -0.6039270819009376 0.18894283662396408 0.7743207889725732
vn -0.6039270819009376 0.18894283662396408 0.7743207889725732
vn 0.6146154922803062 -0.23604798021500117 0.7526813055240943
vn 0.6146154922803062 -0.23604798021500117 0.7526813055240943
vn 0.6146154922803062 -0.23604798021500117 0.7526813055240943
vn -0.2140412190865753 -0.7180573375261943 -0.6622537403116164
vn -0.2140412190865753 -0.7180573375261943 -0.6622537403116164
vn -0.2140412190865753 -0.7180573375261943 -0.6622537403116164
vn 0.010920743399914567 0.6627071464592728 -0.7487990220315469
vn 0.010920743399914567 0.6627071464592728 -0.7487990220315469
vn 0.010920743399914567 0.6627071464592728 -0.7487990220315469
vn -0.5097836204575421 0.06101955411836758 0.8581359299833543
vn -0.5097836204575421 0.06101955411836758 0.8581359299833543
vn -0.5097836204575421 0.06101955411836758 0.8581359299833543
vn 0.4667555650134114 -0.32089447702375223 0.8241152693310952
vn 0.4667555650134114 -0.32089447702375223 0.8241152693310952
vn 0.4667555650134114 -0.32089447702375223 0.8241152693310952
vn -0.6735128881305993 -0.6477609393114457 -0.35607043548198763
vn -0.6735128881305993 -0.6477609393114457 -0.35607043548198763
vn -0.6735128881305993 -0.6477609393114457 -0.35607043548198763
vn 0.44490317410914787 0.2881277559915069 -0.8479643635760314
vn 0.44490317410914787 0.2881277559915069 -0.8479643635760314
vn 0.44490317410914787 0.2881277559915069 -0.8479643635760314
vn -0.5501618275034453 0.7737532698980584 0.3140506979456213
vn -0.5501618275034453 0.7737532698980584 0.3140506979456213
vn -0.5501618275034453 0.7737532698980584 0.3140506979456213
vn 0.5654853574909585 -0.40131226128952463 -0.7205378403678818
vn 0.5654853574909585 -0.40131226128952463 -0.7205378403678818
vn 0.5654853574909585 -0.40131226128952463 -0.7205378403678818
vn 0.0994188507933065 0.818962948440226 0.5651686307546007
vn 0.0994188507933065 0.818962948440226 0.5651686307546007
vn 0.0994188507933065 0.818962948440226 0.5651686307546007
vn -0.0940807163726596 -0.7749901414010077 0.6249312758520358
vn -0.0940807163726596 -0.7749901414010077 0.6249312758520358
vn -0.0940807163726596 -0.7749901414010077 0.6249312758520358
vn -0.6039270819009376 -0.18894283662396408 -0.7743207889725732
vn -0.6039270819009376 -0.18894283662396408 -0.7743207889725732
vn -0.6039270819009376 -0.18894283662396408 -0.7743207889725732
vn 0.6146154922803062 0.23604798021500117 -0.7526813055240943
vn 0.6146154922803062 0.23604798021500117 -0.7526813055240943
vn 0.6146154922803062 0.23604798021500117 -0.7526813055240943
vn -0.2140412190865753 0.7180573375261943 0.6622537403116164
vn -0.2140412190865753 0.7180573375261943 0.6622537403116164
vn -0.2140412190865753 0.7180573375261943 0.6622537403116164
vn 0.010920743399914567 -0.6627071464592728 0.7487990220315469
vn 0.010920743399914567 -0.6627071464592728 0.7487990220315469
vn 0.010920743399914567 -0.6627071464592728 0.7487990220315469
vn -0.5097836204575421 -0.06101955411836758 -0.8581359299833543
vn -0.5097836204575421 -0.06101955411836758 -0.8581359299833543
vn -0.5097836204575421 -0.06101955411836758 -0.8581359299833543
vn 0.4667555650134114 0.32089447702375223 -0.8241152693310952
vn 0.4667555650134114 0.32089447702375223 -0.8241152693310952
vn 0.4667555650134114 0.32089447702375223 -0.8241152693310952
vn -0.6735128881305993 0.6477609393114457 0.35607043548198763
vn -0.6735128881305993 0.6477609393114457 0.35607043548198763
vn -0.6735128881305993 0.6477609393114457 0.35607043548198763
vn 0.44490317410914787 -0.2881277559915069 0.8479643635760314
vn 0.44490317410914787 -0.2881277559915069 0.8479643635760314
vn 0.44490317410914787 -0.2881277559915069 0.8479643635760314
vn -0.5501618275034453 -0.7737532698980584 -0.3140506979456213
vn -0.5501618275034453 -0.7737532698980584 -0.3140506979456213
vn -0.5501618275034453 -0.7737532698980584 -0.3140506979456213
f 301//301 302//302 303//303
f 304//304 305//305 306//306
f 307//307 308//308 309//309
f 310//310 311//311 312//312
f 313//313 314//314 315//315
f 316//316 317//317 318//318
f 319//319 320//320 321//321
f 322//322 323//323 324//324
f 325//325 326//326 327//327
f 328//328 329//329 330//330
f 331//331 332//332 333//333
f 334//334 335//335 336//336
f 337//337 338//338 339//339
f 340//340 341//341 342//342
f 343//343 344//344 345//345
f 346//346 347//347 348//348
f 349//349 350//350 351//351
f 352//352 353//353 354//354
f 355//355 356//356 357//357
f 358//358 359//359 360//360
f 361//361 362//362 363//363
f 364//364 365//365 366//366
f 367//367 368//368 369//369
f 370//370 371//371 372//372
o ears
usemtl fur_white
v 0.07999999821186066 0.7699999809265137 -0.13862499784678223
v 0.30000001192092896 0.6599999964237213 -0.22862499769777062
v 0.24500000476837158 1.159999966621399 -0.24862499725073578
v 0.30000001192092896 0.6599999964237213 -0.22862499769777062
v 0.18000000715255737 0.75 -0.36862500574439766
v 0.24500000476837158 1.159999966621399 -0.24862499725073578
v 0.18000000715255737 0.75 -0.36862500574439766
v 0.07999999821186066 0.7699999809265137 -0.13862499784678223
v 0.24500000476837158 1.159999966621399 -0.24862499725073578
v 0.07999999821186066 0.7699999809265137 -0.13862499784678223
v 0.18000000715255737 0.75 -0.36862500574439766
v 0.30000001192092896 0.6599999964237213 -0.22862499769777062
v -0.07999999821186066 0.7699999809265137 -0.13862499784678223
v -0.30000001192092896 0.6599999964237213 -0.22862499769777062
v -0.24500000476837158 1.159999966621399 -0.24862499725073578
v -0.30000001192092896 0.6599999964237213 -0.22862499769777062
v -0.18000000715255737 0.75 -0.36862500574439766
v -0.24500000476837158 1.159999966621399 -0.24862499725073578
v -0.18000000715255737 0.75 -0.36862500574439766
v -0.07999999821186066 0.7699999809265137 -0.13862499784678223
v -0.24500000476837158 1.159999966621399 -0.24862499725073578
v -0.07999999821186066 0.7699999809265137 -0.13862499784678223
v -0.18000000715255737 0.75 -0.36862500574439766
v -0.30000001192092896 0.6599999964237213 -0.22862499769777062
vn 0.41206027133943046 0.08162635774123773 0.9074929589289242
vn 0.41206027133943046 0.08162635774123773 0.9074929589289242
vn 0.41206027133943046 0.08162635774123773 0.9074929589289242
vn 0.776715404340369 0.0603605960894823 -0.6269527726233448
vn 0.776715404340369 0.0603605960894823 -0.6269527726233448
vn 0.776715404340369 0.0603605960894823 -0.6269527726233448
vn -0.8777814609868347 0.257412555836002 -0.4040278243460406
vn -0.8777814609868347 0.257412555836002 -0.4040278243460406
vn -0.8777814609868347 0.257412555836002 -0.4040278243460406
vn -0.48722371408172743 -0.8624897590221483 -0.13683737800149484
vn -0.48722371408172743 -0.8624897590221483 -0.13683737800149484
vn -0.48722371408172743 -0.8624897590221483 -0.13683737800149484
vn 0.41206027133943046 -0.08162635774123773 -0.9074929589289242
vn 0.41206027133943046 -0.08162635774123773 -0.9074929589289242
vn 0.41206027133943046 -0.08162635774123773 -0.9074929589289242
vn 0.776715404340369 -0.0603605960894823 0.6269527726233448
vn 0.776715404340369 -0.0603605960894823 0.6269527726233448
vn 0.776715404340369 -0.0603605960894823 0.6269527726233448
vn -0.8777814609868347 -0.257412555836002 0.4040278243460406
vn -0.8777814609868347 -0.257412555836002 0.4040278243460406
vn -0.8777814609868347 -0.257412555836002 0.4040278243460406
vn -0.48722371408172743 0.8624897590221483 0.13683737800149484
vn -0.48722371408172743 0.8624897590221483 0.13683737800149484
vn -0.48722371408172743 0.8624897590221483 0.13683737800149484
f 373//373 374//374 375//375
f 376//376 377//377 378//378
f 379//379 380//380 381//381
f 382//382 383//383 384//384
f 385//385 386//386 387//387
f 388//388 389//389 390//390
f 391//391 392//392 393//393
f 394//394 395//395 396//396
o ear_inner
usemtl fur_grey
v 0.10499999672174454 0.7849999964237213 -0.1336249988898635
v 0.2750000059604645 0.6850000023841858 -0.20862499814480545
v 0.23499999940395355 1.0999999642372131 -0.23862499933689835
v -0.10499999672174454 0.7849999964237213 -0.1336249988898635
v -0.23499999940395355 1.0999999642372131 -0.23862499933689835
v -0.2750000059604645 0.6850000023841858 -0.20862499814480545
vn 0.4536299748434572 0.10767483068082521 0.8846615040575575
vn 0.4536299748434572 0.10767483068082521 0.8846615040575575
vn 0.4536299748434572 0.10767483068082521 0.8846615040575575
vn -0.4536299748434572 0.10767483068082521 0.8846615040575575
vn -0.4536299748434572 0.10767483068082521 0.8846615040575575
vn -0.4536299748434572 0.10767483068082521 0.8846615040575575
f 397//397 398//398 399//399
f 400//400 401//401 402//402
o snout_bridge
usemtl fur_grey
v 0 0.7349999845027924 0.11137501332908867
v 0.10999999940395355 0.5949999988079071 0.26637501452118156
v 0 0.5949999988079071 0.2813750002160668
v 0 0.7349999845027924 0.11137501332908867
v 0 0.5949999988079071 0.2813750002160668
v -0.10999999940395355 0.5949999988079071 0.26637501452118156
vn -0.0863633824464639 -0.7690460664903889 -0.6333320722875687
vn -0.0863633824464639 -0.7690460664903889 -0.6333320722875687
vn -0.0863633824464639 -0.7690460664903889 -0.6333320722875687
vn 0.0863633824464639 -0.7690460664903889 -0.6333320722875687
vn 0.0863633824464639 -0.7690460664903889 -0.6333320722875687
vn 0.0863633824464639 -0.7690460664903889 -0.6333320722875687
f 403//403 404//404 405//405
f 406//406 407//407 408//408
o nose
usemtl ink_navy
v 0 0.43299999356269836 0.45637500140815973
v 0 0.3649999928474426 0.5286250021681189
v 0.10625000111758709 0.3649999928474426 0.45637500140815973
v 0 0.3649999928474426 0.5286250021681189
v 0 0.29699999213218686 0.45637500140815973
v 0.10625000111758709 0.3649999928474426 0.45637500140815973
v 0 0.29699999213218686 0.45637500140815973
v 0 0.3649999928474426 0.38412500064820054
v 0.10625000111758709 0.3649999928474426 0.45637500140815973
v 0 0.3649999928474426 0.38412500064820054
v 0 0.43299999356269836 0.45637500140815973
v 0.10625000111758709 0.3649999928474426 0.45637500140815973
v 0 0.43299999356269836 0.45637500140815973
v 0 0.3649999928474426 0.38412500064820054
v -0.10625000111758709 0.3649999928474426 0.45637500140815973
v 0 0.3649999928474426 0.38412500064820054
v 0 0.29699999213218686 0.45637500140815973
v -0.10625000111758709 0.3649999928474426 0.45637500140815973
v 0 0.29699999213218686 0.45637500140815973
v 0 0.3649999928474426 0.5286250021681189
v -0.10625000111758709 0.3649999928474426 0.45637500140815973
v 0 0.3649999928474426 0.5286250021681189
v 0 0.43299999356269836 0.45637500140815973
v -0.10625000111758709 0.3649999928474426 0.45637500140815973
vt 0.875 1
vt 0.75 0.5
vt 1 0.5
vt 0.75 0.5
vt 0.875 0
vt 1 0.5
vt 0.125 0
vt 0.25 0.5
vt 0 0.5
vt 0.25 0.5
vt 0.125 1
vt 0 0.5
vt 0.375 1
vt 0.25 0.5
vt 0.5 0.5
vt 0.25 0.5
vt 0.375 0
vt 0.5 0.5
vt 0.625 0
vt 0.75 0.5
vt 0.5 0.5
vt 0.75 0.5
vt 0.625 1
vt 0.5 0.5
vn 0.42242493064723874 0.6600389541363105 0.6212131333047628
vn 0.42242493064723874 0.6600389541363105 0.6212131333047628
vn 0.42242493064723874 0.6600389541363105 0.6212131333047628
vn 0.42242493064723874 -0.6600389541363105 0.6212131333047628
vn 0.42242493064723874 -0.6600389541363105 0.6212131333047628
vn 0.42242493064723874 -0.6600389541363105 0.6212131333047628
vn 0.42242493064723874 -0.6600389541363105 -0.6212131333047628
vn 0.42242493064723874 -0.6600389541363105 -0.6212131333047628
vn 0.42242493064723874 -0.6600389541363105 -0.6212131333047628
vn 0.42242493064723874 0.6600389541363105 -0.6212131333047628
vn 0.42242493064723874 0.6600389541363105 -0.6212131333047628
vn 0.42242493064723874 0.6600389541363105 -0.6212131333047628
vn -0.42242493064723874 0.6600389541363105 -0.6212131333047628
vn -0.42242493064723874 0.6600389541363105 -0.6212131333047628
vn -0.42242493064723874 0.6600389541363105 -0.6212131333047628
vn -0.42242493064723874 -0.6600389541363105 -0.6212131333047628
vn -0.42242493064723874 -0.6600389541363105 -0.6212131333047628
vn -0.42242493064723874 -0.6600389541363105 -0.6212131333047628
vn -0.42242493064723874 -0.6600389541363105 0.6212131333047628
vn -0.42242493064723874 -0.6600389541363105 0.6212131333047628
vn -0.42242493064723874 -0.6600389541363105 0.6212131333047628
vn -0.42242493064723874 0.6600389541363105 0.6212131333047628
vn -0.42242493064723874 0.6600389541363105 0.6212131333047628
vn -0.42242493064723874 0.6600389541363105 0.6212131333047628
f 409/1/409 410/2/410 411/3/411
f 412/4/412 413/5/413 414/6/414
f 415/7/415 416/8/416 417/9/417
f 418/10/418 419/11/419 420/12/420
f 421/13/421 422/14/422 423/15/423
f 424/16/424 425/17/425 426/18/426
f 427/19/427 428/20/428 429/21/429
f 430/22/430 431/23/431 432/24/432
o eye_right
usemtl ink_navy
v 0.18160144606242568 0.6345208905297313 0.13637500140815972
v 0.175 0.6049999928474425 0.1693750012293458
v 0.25551153913351476 0.586996049040827 0.13637500140815972
v 0.175 0.6049999928474425 0.1693750012293458
v 0.1683985539375743 0.5754790951651538 0.13637500140815972
v 0.25551153913351476 0.586996049040827 0.13637500140815972
v 0.1683985539375743 0.5754790951651538 0.13637500140815972
v 0.175 0.6049999928474425 0.10337500158697366
v 0.25551153913351476 0.586996049040827 0.13637500140815972
v 0.175 0.6049999928474425 0.10337500158697366
v 0.18160144606242568 0.6345208905297313 0.13637500140815972
v 0.25551153913351476 0.586996049040827 0.13637500140815972
v 0.18160144606242568 0.6345208905297313 0.13637500140815972
v 0.175 0.6049999928474425 0.10337500158697366
v 0.09448846086648519 0.6230039366540581 0.13637500140815972
v 0.175 0.6049999928474425 0.10337500158697366
v 0.1683985539375743 0.5754790951651538 0.13637500140815972
v 0.09448846086648519 0.6230039366540581 0.13637500140815972
v 0.1683985539375743 0.5754790951651538 0.13637500140815972
v 0.175 0.6049999928474425 0.1693750012293458
v 0.09448846086648519 0.6230039366540581 0.13637500140815972
v 0.175 0.6049999928474425 0.1693750012293458
v 0.18160144606242568 0.6345208905297313 0.13637500140815972
v 0.09448846086648519 0.6230039366540581 0.13637500140815972
vt 0.875 1
vt 0.75 0.5
vt 1 0.5
vt 0.75 0.5
vt 0.875 0
vt 1 0.5
vt 0.125 0
vt 0.25 0.5
vt 0 0.5
vt 0.25 0.5
vt 0.125 1
vt 0 0.5
vt 0.375 1
vt 0.25 0.5
vt 0.5 0.5
vt 0.25 0.5
vt 0.375 0
vt 0.5 0.5
vt 0.625 0
vt 0.75 0.5
vt 0.5 0.5
vt 0.75 0.5
vt 0.625 1
vt 0.5 0.5
vn 0.4099337959494556 0.6375243780388609 0.6523166028430011
vn 0.4099337959494556 0.6375243780388609 0.6523166028430011
vn 0.4099337959494556 0.6375243780388609 0.6523166028430011
vn 0.0993414911469366 -0.7514082231331178 0.6523166028430011
vn 0.0993414911469366 -0.7514082231331178 0.6523166028430011
vn 0.0993414911469366 -0.7514082231331178 0.6523166028430011
vn 0.0993414911469366 -0.7514082231331178 -0.6523166028430011
vn 0.0993414911469366 -0.7514082231331178 -0.6523166028430011
vn 0.0993414911469366 -0.7514082231331178 -0.6523166028430011
vn 0.4099337959494556 0.6375243780388609 -0.6523166028430011
vn 0.4099337959494556 0.6375243780388609 -0.6523166028430011
vn 0.4099337959494556 0.6375243780388609 -0.6523166028430011
vn -0.0993414911469366 0.7514082231331178 -0.6523166028430011
vn -0.0993414911469366 0.7514082231331178 -0.6523166028430011
vn -0.0993414911469366 0.7514082231331178 -0.6523166028430011
vn -0.4099337959494556 -0.6375243780388609 -0.6523166028430011
vn -0.4099337959494556 -0.6375243780388609 -0.6523166028430011
vn -0.4099337959494556 -0.6375243780388609 -0.6523166028430011
vn -0.4099337959494556 -0.6375243780388609 0.6523166028430011
vn -0.4099337959494556 -0.6375243780388609 0.6523166028430011
vn -0.4099337959494556 -0.6375243780388609 0.6523166028430011
vn -0.0993414911469366 0.7514082231331178 0.6523166028430011
vn -0.0993414911469366 0.7514082231331178 0.6523166028430011
vn -0.0993414911469366 0.7514082231331178 0.6523166028430011
f 433/25/433 434/26/434 435/27/435
f 436/28/436 437/29/437 438/30/438
f 439/31/439 440/32/440 441/33/441
f 442/34/442 443/35/443 444/36/444
f 445/37/445 446/38/446 447/39/447
f 448/40/448 449/41/449 450/42/450
f 451/43/451 452/44/452 453/45/453
f 454/46/454 455/47/455 456/48/456
o eye_left
usemtl ink_navy
v -0.18160144606242568 0.6345208905297313 0.13637500140815972
v -0.175 0.6049999928474425 0.1693750012293458
v -0.09448846086648519 0.6230039366540581 0.13637500140815972
v -0.175 0.6049999928474425 0.1693750012293458
v -0.1683985539375743 0.5754790951651538 0.13637500140815972
v -0.09448846086648519 0.6230039366540581 0.13637500140815972
v -0.1683985539375743 0.5754790951651538 0.13637500140815972
v -0.175 0.6049999928474425 0.10337500158697366
v -0.09448846086648519 0.6230039366540581 0.13637500140815972
v -0.175 0.6049999928474425 0.10337500158697366
v -0.18160144606242568 0.6345208905297313 0.13637500140815972
v -0.09448846086648519 0.6230039366540581 0.13637500140815972
v -0.18160144606242568 0.6345208905297313 0.13637500140815972
v -0.175 0.6049999928474425 0.10337500158697366
v -0.25551153913351476 0.586996049040827 0.13637500140815972
v -0.175 0.6049999928474425 0.10337500158697366
v -0.1683985539375743 0.5754790951651538 0.13637500140815972
v -0.25551153913351476 0.586996049040827 0.13637500140815972
v -0.1683985539375743 0.5754790951651538 0.13637500140815972
v -0.175 0.6049999928474425 0.1693750012293458
v -0.25551153913351476 0.586996049040827 0.13637500140815972
v -0.175 0.6049999928474425 0.1693750012293458
v -0.18160144606242568 0.6345208905297313 0.13637500140815972
v -0.25551153913351476 0.586996049040827 0.13637500140815972
vt 0.875 1
vt 0.75 0.5
vt 1 0.5
vt 0.75 0.5
vt 0.875 0
vt 1 0.5
vt 0.125 0
vt 0.25 0.5
vt 0 0.5
vt 0.25 0.5
vt 0.125 1
vt 0 0.5
vt 0.375 1
vt 0.25 0.5
vt 0.5 0.5
vt 0.25 0.5
vt 0.375 0
vt 0.5 0.5
vt 0.625 0
vt 0.75 0.5
vt 0.5 0.5
vt 0.75 0.5
vt 0.625 1
vt 0.5 0.5
vn 0.0993414911469366 0.7514082231331178 0.6523166028430011
vn 0.0993414911469366 0.7514082231331178 0.6523166028430011
vn 0.0993414911469366 0.7514082231331178 0.6523166028430011
vn 0.4099337959494556 -0.6375243780388609 0.6523166028430011
vn 0.4099337959494556 -0.6375243780388609 0.6523166028430011
vn 0.4099337959494556 -0.6375243780388609 0.6523166028430011
vn 0.4099337959494556 -0.6375243780388609 -0.6523166028430011
vn 0.4099337959494556 -0.6375243780388609 -0.6523166028430011
vn 0.4099337959494556 -0.6375243780388609 -0.6523166028430011
vn 0.0993414911469366 0.7514082231331178 -0.6523166028430011
vn 0.0993414911469366 0.7514082231331178 -0.6523166028430011
vn 0.0993414911469366 0.7514082231331178 -0.6523166028430011
vn -0.4099337959494556 0.6375243780388609 -0.6523166028430011
vn -0.4099337959494556 0.6375243780388609 -0.6523166028430011
vn -0.4099337959494556 0.6375243780388609 -0.6523166028430011
vn -0.0993414911469366 -0.7514082231331178 -0.6523166028430011
vn -0.0993414911469366 -0.7514082231331178 -0.6523166028430011
vn -0.0993414911469366 -0.7514082231331178 -0.6523166028430011
vn -0.0993414911469366 -0.7514082231331178 0.6523166028430011
vn -0.0993414911469366 -0.7514082231331178 0.6523166028430011
vn -0.0993414911469366 -0.7514082231331178 0.6523166028430011
vn -0.4099337959494556 0.6375243780388609 0.6523166028430011
vn -0.4099337959494556 0.6375243780388609 0.6523166028430011
vn -0.4099337959494556 0.6375243780388609 0.6523166028430011
f 457/49/457 458/50/458 459/51/459
f 460/52/460 461/53/461 462/54/462
f 463/55/463 464/56/464 465/57/465
f 466/58/466 467/59/467 468/60/468
f 469/61/469 470/62/470 471/63/471
f 472/64/472 473/65/473 474/66/474
f 475/67/475 476/68/476 477/69/477
f 478/70/478 479/71/479 480/72/480
o jaw_fur
usemtl fur_white
v 0.1899999976158142 0.2579999938607216 0.11137501332908867
v 0.1599999964237213 0.16999998688697815 0.11137501332908867
v 0.10000000149011612 0.20499999076128006 0.3113750014081597
v 0.1899999976158142 0.2579999938607216 0.11137501332908867
v 0.10000000149011612 0.20499999076128006 0.3113750014081597
v 0.11500000208616257 0.267999991774559 0.3113750014081597
v 0.1599999964237213 0.16999998688697815 0.11137501332908867
v 0 0.10999999940395355 0.11137501332908867
v 0 0.16499999165534973 0.3113750014081597
v 0.1599999964237213 0.16999998688697815 0.11137501332908867
v 0 0.16499999165534973 0.3113750014081597
v 0.10000000149011612 0.20499999076128006 0.3113750014081597
v 0 0.10999999940395355 0.11137501332908867
v -0.1599999964237213 0.16999998688697815 0.11137501332908867
v -0.10000000149011612 0.20499999076128006 0.3113750014081597
v 0 0.10999999940395355 0.11137501332908867
v -0.10000000149011612 0.20499999076128006 0.3113750014081597
v 0 0.16499999165534973 0.3113750014081597
v -0.1599999964237213 0.16999998688697815 0.11137501332908867
v -0.1899999976158142 0.2579999938607216 0.11137501332908867
v -0.11500000208616257 0.267999991774559 0.3113750014081597
v -0.1599999964237213 0.16999998688697815 0.11137501332908867
v -0.11500000208616257 0.267999991774559 0.3113750014081597
v -0.10000000149011612 0.20499999076128006 0.3113750014081597
v 0.11500000208616257 0.267999991774559 0.3113750014081597
v 0.10000000149011612 0.20499999076128006 0.3113750014081597
v 0.07500000298023224 0.23499999195337296 0.4113750252500176
v 0.11500000208616257 0.267999991774559 0.3113750014081597
v 0.07500000298023224 0.23499999195337296 0.4113750252500176
v 0.08799999952316284 0.27799999341368675 0.4113750252500176
v 0.10000000149011612 0.20499999076128006 0.3113750014081597
v 0 0.16499999165534973 0.3113750014081597
v 0 0.20499999076128006 0.4113750252500176
v 0.10000000149011612 0.20499999076128006 0.3113750014081597
v 0 0.20499999076128006 0.4113750252500176
v 0.07500000298023224 0.23499999195337296 0.4113750252500176
v 0 0.16499999165534973 0.3113750014081597
v -0.10000000149011612 0.20499999076128006 0.3113750014081597
v -0.07500000298023224 0.23499999195337296 0.4113750252500176
v 0 0.16499999165534973 0.3113750014081597
v -0.07500000298023224 0.23499999195337296 0.4113750252500176
v 0 0.20499999076128006 0.4113750252500176
v -0.10000000149011612 0.20499999076128006 0.3113750014081597
v -0.11500000208616257 0.267999991774559 0.3113750014081597
v -0.08799999952316284 0.27799999341368675 0.4113750252500176
v -0.10000000149011612 0.20499999076128006 0.3113750014081597
v -0.08799999952316284 0.27799999341368675 0.4113750252500176
v -0.07500000298023224 0.23499999195337296 0.4113750252500176
v 0.08799999952316284 0.27799999341368675 0.4113750252500176
v 0.07500000298023224 0.23499999195337296 0.4113750252500176
v 0 0.26499999314546585 0.4663749727979302
v 0.07500000298023224 0.23499999195337296 0.4113750252500176
v 0 0.20499999076128006 0.4113750252500176
v 0 0.26499999314546585 0.4663749727979302
v 0 0.20499999076128006 0.4113750252500176
v -0.07500000298023224 0.23499999195337296 0.4113750252500176
v 0 0.26499999314546585 0.4663749727979302
v -0.07500000298023224 0.23499999195337296 0.4113750252500176
v -0.08799999952316284 0.27799999341368675 0.4113750252500176
v 0 0.26499999314546585 0.4663749727979302
vn -0.8960150072675879 0.3054596845975637 -0.3222599693365923
vn -0.8960150072675879 0.3054596845975637 -0.3222599693365923
vn -0.8960150072675879 0.3054596845975637 -0.3222599693365923
vn -0.910452084659556 0.21677433354490844 -0.3522582715213792
vn -0.910452084659556 0.21677433354490844 -0.3522582715213792
vn -0.910452084659556 0.21677433354490844 -0.3522582715213792
vn -0.34003198812898333 0.9067521272896781 -0.2493568260639646
vn -0.34003198812898333 0.9067521272896781 -0.2493568260639646
vn -0.34003198812898333 0.9067521272896781 -0.2493568260639646
vn -0.35819736773573774 0.8954934640428287 -0.2641705918601908
vn -0.35819736773573774 0.8954934640428287 -0.2641705918601908
vn -0.35819736773573774 0.8954934640428287 -0.2641705918601908
vn 0.3390533308209146 0.9041424340728018 -0.2599409505409886
vn 0.3390533308209146 0.9041424340728018 -0.2599409505409886
vn 0.3390533308209146 0.9041424340728018 -0.2599409505409886
vn 0.35984596924855083 0.8996149380225384 -0.24739410199573353
vn 0.35984596924855083 0.8996149380225384 -0.24739410199573353
vn 0.35984596924855083 0.8996149380225384 -0.24739410199573353
vn 0.8873849334132411 0.30251758687237923 -0.34789522788346827
vn 0.8873849334132411 0.30251758687237923 -0.34789522788346827
vn 0.8873849334132411 0.30251758687237923 -0.34789522788346827
vn 0.9231499379042991 0.21979762484072227 -0.3154095690711774
vn 0.9231499379042991 0.21979762484072227 -0.3154095690711774
vn 0.9231499379042991 0.21979762484072227 -0.3154095690711774
vn -0.9284744345493513 0.2210653443976858 -0.2984381642729273
vn -0.9284744345493513 0.2210653443976858 -0.2984381642729273
vn -0.9284744345493513 0.2210653443976858 -0.2984381642729273
vn -0.9199743836798628 0.27813172249327056 -0.2762062242524284
vn -0.9199743836798628 0.27813172249327056 -0.2762062242524284
vn -0.9199743836798628 0.27813172249327056 -0.2762062242524284
vn -0.3481552839152742 0.8703883140963121 -0.34815525411295234
vn -0.3481552839152742 0.8703883140963121 -0.34815525411295234
vn -0.3481552839152742 0.8703883140963121 -0.34815525411295234
vn -0.3481553101051936 0.8703883050653056 -0.3481552505005505
vn -0.3481553101051936 0.8703883050653056 -0.3481552505005505
vn -0.3481553101051936 0.8703883050653056 -0.3481552505005505
vn 0.3481552839152742 0.8703883140963121 -0.34815525411295234
vn 0.3481552839152742 0.8703883140963121 -0.34815525411295234
vn 0.3481552839152742 0.8703883140963121 -0.34815525411295234
vn 0.3481553137175955 0.8703883140963107 -0.3481552243106299
vn 0.3481553137175955 0.8703883140963107 -0.3481552243106299
vn 0.3481553137175955 0.8703883140963107 -0.3481552243106299
vn 0.9353504174014174 0.22270248813904095 -0.2748148439289166
vn 0.9353504174014174 0.22270248813904095 -0.2748148439289166
vn 0.9353504174014174 0.22270248813904095 -0.2748148439289166
vn 0.9100407364039814 0.27512851363674506 -0.310048639844355
vn 0.9100407364039814 0.27512851363674506 -0.310048639844355
vn 0.9100407364039814 0.27512851363674506 -0.310048639844355
vn -0.5401190440914632 0.16329176486878677 -0.8255950688659429
vn -0.5401190440914632 0.16329176486878677 -0.8255950688659429
vn -0.5401190440914632 0.16329176486878677 -0.8255950688659429
vn -0.26092652193207094 0.6523162899290158 -0.7116184427385766
vn -0.26092652193207094 0.6523162899290158 -0.7116184427385766
vn -0.26092652193207094 0.6523162899290158 -0.7116184427385766
vn 0.26092652193207094 0.6523162899290158 -0.7116184427385766
vn 0.26092652193207094 0.6523162899290158 -0.7116184427385766
vn 0.26092652193207094 0.6523162899290158 -0.7116184427385766
vn 0.5401190440914632 0.16329176486878677 -0.8255950688659429
vn 0.5401190440914632 0.16329176486878677 -0.8255950688659429
vn 0.5401190440914632 0.16329176486878677 -0.8255950688659429
f 481//481 482//482 483//483
f 484//484 485//485 486//486
f 487//487 488//488 489//489
f 490//490 491//491 492//492
f 493//493 494//494 495//495
f 496//496 497//497 498//498
f 499//499 500//500 501//501
f 502//502 503//503 504//504
f 505//505 506//506 507//507
f 508//508 509//509 510//510
f 511//511 512//512 513//513
f 514//514 515//515 516//516
f 517//517 518//518 519//519
f 520//520 521//521 522//522
f 523//523 524//524 525//525
f 526//526 527//527 528//528
f 529//529 530//530 531//531
f 532//532 533//533 534//534
f 535//535 536//536 537//537
f 538//538 539//539 540//540
o jaw_mouth_floor
usemtl mouth_dark
v -0.1899999976158142 0.2579999938607216 0.11137501332908867
v 0.1899999976158142 0.2579999938607216 0.11137501332908867
v 0.11500000208616257 0.267999991774559 0.3113750014081597
v -0.1899999976158142 0.2579999938607216 0.11137501332908867
v 0.11500000208616257 0.267999991774559 0.3113750014081597
v -0.11500000208616257 0.267999991774559 0.3113750014081597
v -0.11500000208616257 0.267999991774559 0.3113750014081597
v 0.11500000208616257 0.267999991774559 0.3113750014081597
v 0.08799999952316284 0.27799999341368675 0.4113750252500176
v -0.11500000208616257 0.267999991774559 0.3113750014081597
v 0.08799999952316284 0.27799999341368675 0.4113750252500176
v -0.08799999952316284 0.27799999341368675 0.4113750252500176
v -0.08799999952316284 0.27799999341368675 0.4113750252500176
v 0.08799999952316284 0.27799999341368675 0.4113750252500176
v 0 0.26499999314546585 0.4663749727979302
vn 0 -0.9987523394724047 0.04993760505269147
vn 0 -0.9987523394724047 0.04993760505269147
vn 0 -0.9987523394724047 0.04993760505269147
vn 0 -0.9987523391008047 0.04993761248469195
vn 0 -0.9987523391008047 0.04993761248469195
vn 0 -0.9987523391008047 0.04993761248469195
vn 0 -0.9950371903575255 0.09950371754563643
vn 0 -0.9950371903575255 0.09950371754563643
vn 0 -0.9950371903575255 0.09950371754563643
vn 0 -0.9950371910952066 0.099503710168824
vn 0 -0.9950371910952066 0.099503710168824
vn 0 -0.9950371910952066 0.099503710168824
vn 0 -0.973184564317291 -0.23002565894822394
vn 0 -0.973184564317291 -0.23002565894822394
vn 0 -0.973184564317291 -0.23002565894822394
f 541//541 542//542 543//543
f 544//544 545//545 546//546
f 547//547 548//548 549//549
f 550//550 551//551 552//552
f 553//553 554//554 555//555
o jaw_throat
usemtl mouth_dark
v 0.1899999976158142 0.2579999938607216 0.11137501332908867
v -0.1899999976158142 0.2579999938607216 0.11137501332908867
v 0 0.19999999552965164 0.11137501332908867
v 0.1599999964237213 0.16999998688697815 0.11137501332908867
v 0.1899999976158142 0.2579999938607216 0.11137501332908867
v 0 0.19999999552965164 0.11137501332908867
v 0 0.10999999940395355 0.11137501332908867
v 0.1599999964237213 0.16999998688697815 0.11137501332908867
v 0 0.19999999552965164 0.11137501332908867
v -0.1599999964237213 0.16999998688697815 0.11137501332908867
v 0 0.10999999940395355 0.11137501332908867
v 0 0.19999999552965164 0.11137501332908867
v -0.1899999976158142 0.2579999938607216 0.11137501332908867
v -0.1599999964237213 0.16999998688697815 0.11137501332908867
v 0 0.19999999552965164 0.11137501332908867
vn 0 0 1
vn 0 0 1
vn 0 0 1
vn 0 0 1
vn 0 0 1
vn 0 0 1
vn 0 0 1
vn 0 0 1
vn 0 0 1
vn 0 0 1
vn 0 0 1
vn 0 0 1
vn 0 0 1
vn 0 0 1
vn 0 0 1
f 556//556 557//557 558//558
f 559//559 560//560 561//561
f 562//562 563//563 564//564
f 565//565 566//566 567//567
f 568//568 569//569 570//570
